<?xml version="1.0" encoding="utf-8"?>
<!-- Generator: Adobe Illustrator 26.1.0, SVG Export Plug-In . SVG Version: 6.00 Build 0)  -->
<svg version="1.1" id="Logo" xmlns="http://www.w3.org/2000/svg" xmlns:xlink="http://www.w3.org/1999/xlink" x="0px" y="0px"
	 viewBox="0 0 660.8 174.9" style="enable-background:new 0 0 660.8 174.9;" xml:space="preserve">
<style type="text/css">
	
		.st0{fill-rule:evenodd;clip-rule:evenodd;fill:none;stroke:#6D81F4;stroke-width:20;stroke-linecap:round;stroke-linejoin:round;stroke-miterlimit:10;}
	.st1{fill:#5BB4F1;}
</style>
<g id="Loop">
	<g id="Loop_00000064313952401934743740000002511767189619539365_">
		<path class="st0" d="M358.3,114.6l30.1,27.2c7.5,7.5,16.2,13.1,25.4,16.9c9.2,3.8,19.1,5.6,28.9,5.6c9.8,0,19.7-1.9,28.9-5.6
			c9.2-3.8,17.9-9.4,25.4-16.9c7.5-7.5,13.1-16.2,16.9-25.4c3.8-9.2,5.6-19.1,5.6-28.9s-1.9-19.7-5.6-28.9s-9.4-17.9-16.9-25.4
			c-7.5-7.5-16.2-13.1-25.4-16.9c-9.2-3.8-19.1-5.6-28.9-5.6c-9.8,0-19.7,1.9-28.9,5.6c-9.2,3.8-17.9,9.4-25.4,16.9l-30.1,27.2
			l-30.1,27.2L298,114.6l-30.1,27.2c-7.5,7.5-16.2,13.1-25.4,16.9c-9.2,3.8-19.1,5.6-28.9,5.6s-19.7-1.9-28.9-5.6
			c-9.2-3.8-17.9-9.4-25.4-16.9c-7.5-7.5-13.1-16.2-16.9-25.4c-3.8-9.2-5.6-19.1-5.6-28.9s1.9-19.7,5.6-28.9
			c3.8-9.2,9.4-17.9,16.9-25.4c7.5-7.5,16.2-13.1,25.4-16.9c9.2-3.8,19.1-5.6,28.9-5.6s19.7,1.9,28.9,5.6
			c9.2,3.8,17.9,9.4,25.4,16.9L298,60.3"/>
		<polyline class="st0" points="298,10.6 298,60.3 248.3,60.3 		"/>
		<polyline class="st0" points="358.3,164.3 358.3,114.6 407.9,114.6 		"/>
	</g>
</g>
<g id="S">
	<path id="S_00000088838996964383742310000005422693722401443719_" class="st1" d="M604.6,174.9c-12,0-22.4-1.9-31-5.6
		c-8.6-3.7-15.3-9.1-19.9-16.1c-4.7-7-7.1-15.3-7.3-24.9H569c0,8.5,3.1,15.3,9.4,20.3c6.3,5,15,7.5,26.2,7.5
		c10.5,0,18.8-2.4,24.7-7.2c5.9-4.8,8.9-11.5,8.9-20c0-6.8-2-12.8-5.9-17.9c-3.9-5.1-9.6-8.7-16.9-10.7l-24.8-7.2
		c-12.5-3.6-22.2-9.5-29-17.9c-6.8-8.4-10.2-18.2-10.2-29.6c0-9.2,2.2-17.1,6.6-23.9c4.4-6.8,10.7-12,18.7-15.8
		c8-3.8,17.5-5.7,28.3-5.7c16,0,28.9,4.2,38.6,12.5c9.7,8.3,14.6,19.4,14.8,33.2H636c0-8.4-2.7-14.9-8.2-19.7
		c-5.4-4.7-13.1-7.1-22.9-7.1c-9.7,0-17.3,2.2-22.7,6.5c-5.4,4.3-8.2,10.4-8.2,18.2c0,7,2,13,6,18.2c4,5.1,9.8,8.8,17.3,10.9
		l25.1,7.5c12.2,3.6,21.7,9.6,28.3,18.2c6.7,8.5,10,18.5,10,30c0,9.3-2.3,17.5-7,24.4c-4.7,7-11.2,12.4-19.7,16.3
		C625.7,172.9,615.8,174.9,604.6,174.9z"/>
</g>
<g id="J">
	<path id="J_00000138573273087566451450000012701314313602142608_" class="st1" d="M53.2,174.9c-16.5,0-29.5-4.6-39-13.9
		c-9.5-9.3-14.2-22-14.2-38h21.3c0,10.6,2.8,18.7,8.4,24.5c5.6,5.8,13.4,8.6,23.5,8.6c10.1,0,17.9-2.9,23.5-8.6
		c5.6-5.8,8.4-13.9,8.4-24.5V19.4H43.7V0h62.6v122.9c0,16.1-4.8,28.8-14.3,38C82.5,170.2,69.6,174.9,53.2,174.9z"/>
</g>
</svg>