<?xml version="1.0" encoding="utf-8"?>
<svg viewBox="-20.982 125.133 660.826 174.868" width="660.826" height="174.868" xmlns="http://www.w3.org/2000/svg">
  <path id="path0" d="M 178.957 125.828 C 111.812 134.233 81.677 218.384 126.855 271.322 C 146.499 294.341 179.755 304.839 208.959 297.241 C 227.9 292.312 229.577 291.045 308.558 221.962 C 388.156 152.34 384.89 155.071 394.105 150.411 C 460.309 116.929 520.168 208.215 467.152 261.808 C 439.806 289.452 405.445 288.585 374.474 259.472 L 362.329 248.056 C 362.329 248.056 384 248.1 392.35 248.1 C 404.6 247.185 404.6 230.615 392.35 229.7 C 384 229.7 379.202 229.697 365.991 229.697 C 327.403 229.697 331.214 225.84 331.214 264.889 C 331.214 277.523 331.2 285.6 331.2 291 C 332.1 303 348.3 303 349.2 291 C 349.2 287.7 349.183 260.666 349.183 260.666 L 360.712 271.939 C 386.512 297.165 413.356 305.2 443.714 296.782 C 503.788 280.125 525.652 202.49 484.011 153.696 C 464.367 130.677 431.111 120.179 401.907 127.777 C 382.966 132.706 381.289 133.973 302.308 203.056 C 222.71 272.678 225.976 269.947 216.761 274.607 C 150.557 308.089 90.698 216.803 143.714 163.21 C 171.059 135.567 205.349 136.437 236.52 165.565 L 248.717 176.962 C 248.717 176.962 220.777 177 218.527 177 C 206.377 177.9 206.377 194.385 218.527 195.3 C 222.677 195.3 231.118 195.322 244.875 195.322 C 283.44 195.322 279.652 199.112 279.652 160.517 C 279.652 148.881 279.692 140.733 279.692 134.333 C 278.792 122.133 262.592 122.133 261.692 134.333 C 261.692 139.333 261.683 164.352 261.683 164.352 L 250.154 153.079 C 227.542 130.97 205.446 122.512 178.957 125.828" stroke="none" fill-rule="evenodd" style="fill: rgb(109, 129, 244);"/>
  <path d="M 32.187 300.001 C 15.646 300.001 2.649 295.353 -6.804 286.059 C -16.256 276.764 -20.982 264.082 -20.982 248.013 L 0.286 248.013 C 0.286 258.568 3.082 266.72 8.675 272.471 C 14.267 278.221 22.104 281.096 32.187 281.096 C 42.269 281.096 50.107 278.221 55.7 272.471 C 61.292 266.72 64.089 258.568 64.089 248.013 L 64.089 144.512 L 22.735 144.512 L 22.735 125.135 L 85.356 125.135 L 85.356 248.013 C 85.356 264.082 80.59 276.764 71.06 286.059 C 61.528 295.353 48.571 300.001 32.187 300.001 Z" style="fill: rgb(91, 180, 241); text-transform: uppercase; white-space: pre;"/>
  <path d="M 583.666 299.999 C 571.628 299.999 561.304 298.137 552.693 294.411 C 544.082 290.685 537.435 285.329 532.754 278.344 C 528.072 271.359 525.648 263.053 525.482 253.43 L 548.053 253.43 C 548.053 261.968 551.189 268.721 557.457 273.688 C 563.728 278.656 572.463 281.139 583.666 281.139 C 594.199 281.139 602.434 278.732 608.37 273.922 C 614.303 269.108 617.272 262.434 617.272 253.897 C 617.272 247.066 615.307 241.089 611.378 235.967 C 607.449 230.844 601.806 227.275 594.45 225.256 L 569.622 218.038 C 557.082 214.468 547.426 208.49 540.655 200.109 C 533.884 191.726 530.497 181.869 530.497 170.537 C 530.497 161.379 532.712 153.422 537.144 146.671 C 541.574 139.918 547.802 134.64 555.828 130.838 C 563.853 127.034 573.299 125.133 584.168 125.133 C 600.218 125.133 613.092 129.285 622.791 137.589 C 632.487 145.894 637.42 156.955 637.587 170.77 L 615.016 170.77 C 615.016 162.388 612.298 155.829 606.865 151.095 C 601.43 146.36 593.781 143.993 583.917 143.993 C 574.219 143.993 566.653 146.166 561.219 150.513 C 555.786 154.859 553.069 160.913 553.069 168.674 C 553.069 175.66 555.076 181.714 559.089 186.836 C 563.1 191.958 568.869 195.607 576.393 197.78 L 601.473 205.232 C 613.678 208.802 623.124 214.855 629.812 223.394 C 636.5 231.931 639.844 241.943 639.844 253.43 C 639.844 262.744 637.503 270.893 632.822 277.878 C 628.14 284.864 621.577 290.298 613.135 294.178 C 604.692 298.058 594.867 299.999 583.666 299.999 Z" style="fill: rgb(91, 180, 241); text-transform: uppercase; white-space: pre;"/>
</svg>