<?xml version="1.0" encoding="utf-8"?>
<svg viewBox="35.296 156.846 447.635 224.516" width="447.635" height="224.516" xmlns="http://www.w3.org/2000/svg">
  <path d="M 13.650000000000006 357.71901245117186 Q -4.709999999999997 357.71901245117186 -15.25 347.5190124511719 Q -25.79 337.3190124511719 -25.79 319.8090124511719 L -7.599999999999998 319.8090124511719 Q -7.599999999999998 330.17901245117184 -1.9899999999999984 335.8740124511719 Q 3.6200000000000045 341.5690124511719 13.650000000000006 341.5690124511719 Q 23.680000000000007 341.5690124511719 29.290000000000006 335.8740124511719 Q 34.900000000000006 330.17901245117184 34.900000000000006 319.97901245117185 L 34.900000000000006 248.74901245117186 L 5.660000000000004 248.74901245117186 L 5.660000000000004 231.91901245117185 L 53.09 231.91901245117185 L 53.09 319.97901245117185 Q 53.09 337.4890124511719 42.465 347.60401245117185 Q 31.840000000000003 357.71901245117186 13.650000000000006 357.71901245117186 Z M 325.25716186523437 357.71901245117186 Q 312.6771618652344 357.71901245117186 303.6671618652344 353.5540124511719 Q 294.6571618652344 349.3890124511719 289.7271618652344 341.65401245117187 Q 284.7971618652344 333.91901245117185 284.7971618652344 323.2090124511719 L 302.9871618652344 323.2090124511719 Q 302.9871618652344 331.7090124511719 308.9371618652344 336.5540124511719 Q 314.88716186523436 341.39901245117187 325.4271618652344 341.39901245117187 Q 335.2871618652344 341.39901245117187 340.89716186523435 336.6390124511719 Q 346.50716186523437 331.8790124511719 346.50716186523437 323.54901245117185 Q 346.50716186523437 316.5790124511719 342.6821618652344 311.47901245117185 Q 338.8571618652344 306.3790124511719 331.7171618652344 304.5090124511719 L 316.07716186523436 299.91901245117185 Q 302.4771618652344 296.0090124511719 295.08216186523435 286.5740124511719 Q 287.6871618652344 277.1390124511719 287.6871618652344 264.04901245117185 Q 287.6871618652344 253.84901245117186 292.27716186523435 246.19901245117188 Q 296.8671618652344 238.54901245117185 305.3671618652344 234.29901245117185 Q 313.8671618652344 230.04901245117185 325.4271618652344 230.04901245117185 Q 342.4271618652344 230.04901245117185 352.7121618652344 239.22901245117185 Q 362.9971618652344 248.40901245117186 363.1671618652344 263.8790124511719 L 344.8071618652344 263.8790124511719 Q 344.8071618652344 255.71901245117186 339.6221618652344 251.04401245117185 Q 334.4371618652344 246.36901245117187 325.0871618652344 246.36901245117187 Q 316.07716186523436 246.36901245117187 310.9771618652344 250.70401245117188 Q 305.87716186523437 255.03901245117186 305.87716186523437 262.85901245117185 Q 305.87716186523437 269.8290124511719 309.70216186523436 274.92901245117184 Q 313.52716186523435 280.02901245117187 320.6671618652344 282.0690124511719 L 336.4771618652344 286.8290124511719 Q 350.0771618652344 290.5690124511719 357.38716186523436 300.08901245117187 Q 364.69716186523436 309.60901245117185 364.69716186523436 322.8690124511719 Q 364.69716186523436 333.2390124511719 359.76716186523436 341.1440124511719 Q 354.8371618652344 349.04901245117185 345.9971618652344 353.3840124511719 Q 337.1571618652344 357.71901245117186 325.25716186523437 357.71901245117186 Z" transform="matrix(1.0971449613571167, 0, 0, 1, 70.67881774902344, -25.748220443725586)" style="fill: rgb(51, 51, 51); text-transform: uppercase; white-space: pre;"/>
  <path transform="matrix(1.0971449613571167, 0, 0, 1, 70.67881774902344, -25.748220443725586)" style="fill: rgb(51, 51, 51); text-transform: uppercase; white-space: pre;"/>
  <g transform="matrix(0.618754, 0, 0, 0.643402, 114.175401, 120.671083)" style="">
    <g>
      <path style="fill: none; stroke-width: 11px; stroke-linecap: round; stroke: rgb(23, 104, 255);" d="M 234.9 228.485 C 234.9 305.284 151.763 353.284 85.253 314.884 M 334.74 328.325 C 411.539 328.325 459.539 245.188 421.139 178.678 C 382.739 112.168 286.74 112.168 248.341 178.678 C 239.476 194.033 234.863 211.473 234.977 229.203 M 48.811 278.442 C 87.21 344.952 183.209 344.952 221.609 278.442 C 230.474 263.087 235.087 245.646 234.973 227.916 M 334.74 328.325 C 411.539 328.325 459.539 245.188 421.139 178.678 C 382.739 112.168 286.74 112.168 248.341 178.678 C 239.476 194.033 234.863 211.473 234.977 229.203"/>
      <path d="M 187.768 319.647 C 181.425 323.309 174.624 326.314 167.515 328.59 C 156.97 332.057 146.034 333.825 135.21 333.825 C 128.222 333.825 121.188 333.088 114.243 331.633 C 103.424 329.467 92.704 325.537 82.503 319.647 C 66.966 310.677 54.765 298.391 46.038 284.422 C 45.359 283.361 44.696 282.285 44.048 281.192 C 43.298 279.858 42.58 278.516 41.894 277.167 C 33.933 261.867 29.871 245 29.871 228.485 C 29.871 216.656 31.981 204.694 36.114 193.256 C 38.23 187.207 40.887 181.4 44.047 175.927 C 52.777 160.806 65.763 147.312 81.077 138.109 C 88.731 133.51 97.435 129.706 106.39 127.2 C 106.809 127.082 107.249 126.968 107.707 126.856 C 107.878 126.81 108.048 126.765 108.218 126.72 C 117.062 124.38 134.372 123.405 134.372 123.405 C 134.725 123.336 136.287 134.172 136.471 134.178 C 136.459 134.179 136.264 134.184 135.928 134.195 C 135.94 134.226 135.949 134.243 135.956 134.243 C 135.867 134.246 126.267 134.596 121.908 135.193 C 119.201 135.564 116.611 136.031 114.054 136.606 C 113.05 136.837 112.044 137.086 111.031 137.354 C 102.884 139.509 95.351 142.579 88.003 146.849 C 87.12 147.344 86.25 147.85 85.393 148.364 C 71.951 156.742 61.384 167.899 53.574 181.427 C 48.918 189.491 45.382 198.09 43.155 207.004 C 41.624 214.015 40.871 221.221 40.871 228.485 C 40.871 238.977 42.466 249.306 45.71 259.102 C 47.721 264.684 50.329 270.23 53.574 275.692 C 56.611 281.107 60.021 286.034 63.747 290.485 C 70.355 297.949 78.426 304.592 88.003 310.121 C 96.372 314.953 104.904 318.364 113.441 320.476 C 120.543 322.051 127.846 322.824 135.21 322.824 C 141.686 322.824 148.116 322.226 154.403 321.01 C 164.127 318.88 173.502 315.182 182.268 310.121 C 192.05 304.473 200.799 297.319 208.025 288.831 C 211.227 284.822 214.181 280.445 216.846 275.692 C 223.722 263.936 227.813 251.305 229.066 238.007 C 229.327 234.899 229.441 231.724 229.4 228.485 L 229.478 228.485 C 229.477 228.307 229.475 228.129 229.473 227.951 L 229.484 227.951 C 229.688 209.914 234.648 191.582 243.578 175.928 C 263.939 141.583 299.92 123.296 334.74 123.296 C 369.559 123.296 405.94 141.353 425.902 175.928 C 445.864 210.503 443.312 251.038 425.902 281.193 C 417.172 296.314 404.186 309.808 388.872 319.01 C 381.219 323.609 372.514 327.413 363.559 329.919 C 354.624 332.42 336.222 333.622 336.222 333.622 C 335.868 333.696 334.18 322.881 333.994 322.876 C 334.083 322.873 343.683 322.523 348.041 321.926 C 352.413 321.327 356.479 320.478 360.595 319.326 C 368.815 317.026 376.16 313.816 383.207 309.581 C 397.292 301.117 408.306 289.67 416.376 275.693 C 432.566 247.651 434.814 213.363 416.376 181.428 C 397.938 149.493 367.12 134.296 334.74 134.296 C 302.36 134.296 271.142 149.263 253.104 181.428 C 244.733 195.74 240.489 211.349 240.47 227.881 L 240.473 227.881 C 240.473 228.108 240.473 228.335 240.471 228.562 C 240.473 228.764 240.474 228.966 240.477 229.168 L 240.466 229.168 C 240.262 247.205 235.302 265.538 226.372 281.192 C 220.982 290.284 214.497 298.251 207.229 305.05 C 201.289 310.71 194.746 315.618 187.768 319.647 Z M 136.471 134.178 C 136.471 134.178 136.471 134.178 136.471 134.178 C 136.471 134.178 136.471 134.178 136.471 134.178 Z M 135.957 134.243 C 135.957 134.243 135.956 134.243 135.956 134.243 C 135.957 134.243 135.957 134.243 135.957 134.243 Z M 333.993 322.876 C 333.993 322.876 333.994 322.876 333.994 322.876 C 333.993 322.876 333.993 322.876 333.993 322.876 Z" style="fill: none; stroke: rgb(23, 104, 255);"/>
      <path d="M 187.768 319.647 C 181.425 323.309 174.624 326.314 167.515 328.59 C 156.97 332.057 146.034 333.825 135.21 333.825 C 128.222 333.825 121.188 333.088 114.243 331.633 C 103.424 329.467 92.704 325.537 82.503 319.647 C 66.966 310.677 54.765 298.391 46.038 284.422 C 45.359 283.361 44.696 282.285 44.048 281.192 C 43.298 279.858 42.58 278.516 41.894 277.167 C 33.933 261.867 29.871 245 29.871 228.485 C 29.871 216.656 31.981 204.694 36.114 193.256 C 38.23 187.207 40.887 181.4 44.047 175.927 C 52.777 160.806 65.763 147.312 81.077 138.109 C 88.731 133.51 97.435 129.706 106.39 127.2 C 106.809 127.082 107.249 126.968 107.707 126.856 C 107.878 126.81 108.048 126.765 108.218 126.72 C 117.062 124.38 134.372 123.405 134.372 123.405 C 134.725 123.336 136.287 134.172 136.471 134.178 C 136.459 134.179 136.264 134.184 135.928 134.195 C 135.94 134.226 135.949 134.243 135.956 134.243 C 135.867 134.246 126.267 134.596 121.908 135.193 C 119.201 135.564 116.611 136.031 114.054 136.606 C 113.05 136.837 112.044 137.086 111.031 137.354 C 102.884 139.509 95.351 142.579 88.003 146.849 C 87.12 147.344 86.25 147.85 85.393 148.364 C 71.951 156.742 61.384 167.899 53.574 181.427 C 48.918 189.491 45.382 198.09 43.155 207.004 C 41.624 214.015 40.871 221.221 40.871 228.485 C 40.871 238.977 42.466 249.306 45.71 259.102 C 47.721 264.684 50.329 270.23 53.574 275.692 C 56.611 281.107 60.021 286.034 63.747 290.485 C 70.355 297.949 78.426 304.592 88.003 310.121 C 96.372 314.953 104.904 318.364 113.441 320.476 C 120.543 322.051 127.846 322.824 135.21 322.824 C 141.686 322.824 148.116 322.226 154.403 321.01 C 164.127 318.88 173.502 315.182 182.268 310.121 C 192.05 304.473 200.799 297.319 208.025 288.831 C 211.227 284.822 214.181 280.445 216.846 275.692 C 223.722 263.936 227.813 251.305 229.066 238.007 C 229.327 234.899 229.441 231.724 229.4 228.485 L 229.478 228.485 C 229.477 228.307 229.475 228.129 229.473 227.951 L 229.484 227.951 C 229.688 209.914 234.648 191.582 243.578 175.928 C 263.939 141.583 299.92 123.296 334.74 123.296 C 369.559 123.296 405.94 141.353 425.902 175.928 C 445.864 210.503 443.312 251.038 425.902 281.193 C 417.172 296.314 404.186 309.808 388.872 319.01 C 381.219 323.609 372.514 327.413 363.559 329.919 C 354.624 332.42 336.222 333.622 336.222 333.622 C 335.868 333.696 334.18 322.881 333.994 322.876 C 334.083 322.873 343.683 322.523 348.041 321.926 C 352.413 321.327 356.479 320.478 360.595 319.326 C 368.815 317.026 376.16 313.816 383.207 309.581 C 397.292 301.117 408.306 289.67 416.376 275.693 C 432.566 247.651 434.814 213.363 416.376 181.428 C 397.938 149.493 367.12 134.296 334.74 134.296 C 302.36 134.296 271.142 149.263 253.104 181.428 C 244.733 195.74 240.489 211.349 240.47 227.881 L 240.473 227.881 C 240.473 228.108 240.473 228.335 240.471 228.562 C 240.473 228.764 240.474 228.966 240.477 229.168 L 240.466 229.168 C 240.262 247.205 235.302 265.538 226.372 281.192 C 220.982 290.284 214.497 298.251 207.229 305.05 C 201.289 310.71 194.746 315.618 187.768 319.647 Z M 136.471 134.178 C 136.471 134.178 136.471 134.178 136.471 134.178 C 136.471 134.178 136.471 134.178 136.471 134.178 Z M 135.957 134.243 C 135.957 134.243 135.956 134.243 135.956 134.243 C 135.957 134.243 135.957 134.243 135.957 134.243 Z M 333.993 322.876 C 333.993 322.876 333.994 322.876 333.994 322.876 C 333.993 322.876 333.993 322.876 333.993 322.876 Z" style="fill: none; stroke: rgb(23, 104, 255);"/>
      <path d="M 187.768 319.647 C 181.425 323.309 174.624 326.314 167.515 328.59 C 156.97 332.057 146.034 333.825 135.21 333.825 C 128.222 333.825 121.188 333.088 114.243 331.633 C 103.424 329.467 92.704 325.537 82.503 319.647 C 66.966 310.677 54.765 298.391 46.038 284.422 C 45.359 283.361 44.696 282.285 44.048 281.192 C 43.298 279.858 42.58 278.516 41.894 277.167 C 33.933 261.867 29.871 245 29.871 228.485 C 29.871 216.656 31.981 204.694 36.114 193.256 C 38.23 187.207 40.887 181.4 44.047 175.927 C 52.777 160.806 65.763 147.312 81.077 138.109 C 88.731 133.51 97.435 129.706 106.39 127.2 C 106.809 127.082 107.249 126.968 107.707 126.856 C 107.878 126.81 108.048 126.765 108.218 126.72 C 117.062 124.38 134.372 123.405 134.372 123.405 C 134.725 123.336 136.287 134.172 136.471 134.178 C 136.459 134.179 136.264 134.184 135.928 134.195 C 135.94 134.226 135.949 134.243 135.956 134.243 C 135.867 134.246 126.267 134.596 121.908 135.193 C 119.201 135.564 116.611 136.031 114.054 136.606 C 113.05 136.837 112.044 137.086 111.031 137.354 C 102.884 139.509 95.351 142.579 88.003 146.849 C 87.12 147.344 86.25 147.85 85.393 148.364 C 71.951 156.742 61.384 167.899 53.574 181.427 C 48.918 189.491 45.382 198.09 43.155 207.004 C 41.624 214.015 40.871 221.221 40.871 228.485 C 40.871 238.977 42.466 249.306 45.71 259.102 C 47.721 264.684 50.329 270.23 53.574 275.692 C 56.611 281.107 60.021 286.034 63.747 290.485 C 70.355 297.949 78.426 304.592 88.003 310.121 C 96.372 314.953 104.904 318.364 113.441 320.476 C 120.543 322.051 127.846 322.824 135.21 322.824 C 141.686 322.824 148.116 322.226 154.403 321.01 C 164.127 318.88 173.502 315.182 182.268 310.121 C 192.05 304.473 200.799 297.319 208.025 288.831 C 211.227 284.822 214.181 280.445 216.846 275.692 C 223.722 263.936 227.813 251.305 229.066 238.007 C 229.327 234.899 229.441 231.724 229.4 228.485 L 229.478 228.485 C 229.477 228.307 229.475 228.129 229.473 227.951 L 229.484 227.951 C 229.688 209.914 234.648 191.582 243.578 175.928 C 263.939 141.583 299.92 123.296 334.74 123.296 C 369.559 123.296 405.94 141.353 425.902 175.928 C 445.864 210.503 443.312 251.038 425.902 281.193 C 417.172 296.314 404.186 309.808 388.872 319.01 C 381.219 323.609 372.514 327.413 363.559 329.919 C 354.624 332.42 336.222 333.622 336.222 333.622 C 335.868 333.696 334.18 322.881 333.994 322.876 C 334.083 322.873 343.683 322.523 348.041 321.926 C 352.413 321.327 356.479 320.478 360.595 319.326 C 368.815 317.026 376.16 313.816 383.207 309.581 C 397.292 301.117 408.306 289.67 416.376 275.693 C 432.566 247.651 434.814 213.363 416.376 181.428 C 397.938 149.493 367.12 134.296 334.74 134.296 C 302.36 134.296 271.142 149.263 253.104 181.428 C 244.733 195.74 240.489 211.349 240.47 227.881 L 240.473 227.881 C 240.473 228.108 240.473 228.335 240.471 228.562 C 240.473 228.764 240.474 228.966 240.477 229.168 L 240.466 229.168 C 240.262 247.205 235.302 265.538 226.372 281.192 C 220.982 290.284 214.497 298.251 207.229 305.05 C 201.289 310.71 194.746 315.618 187.768 319.647 Z M 136.471 134.178 C 136.471 134.178 136.471 134.178 136.471 134.178 C 136.471 134.178 136.471 134.178 136.471 134.178 Z M 135.957 134.243 C 135.957 134.243 135.956 134.243 135.956 134.243 C 135.957 134.243 135.957 134.243 135.957 134.243 Z M 333.993 322.876 C 333.993 322.876 333.994 322.876 333.994 322.876 C 333.993 322.876 333.993 322.876 333.993 322.876 Z" style="fill: none; stroke: rgb(23, 104, 255);"/>
      <path d="M 187.768 319.647 C 181.425 323.309 174.624 326.314 167.515 328.59 C 156.97 332.057 146.034 333.825 135.21 333.825 C 128.222 333.825 121.188 333.088 114.243 331.633 C 103.424 329.467 92.704 325.537 82.503 319.647 C 66.966 310.677 54.765 298.391 46.038 284.422 C 45.359 283.361 44.696 282.285 44.048 281.192 C 43.298 279.858 42.58 278.516 41.894 277.167 C 33.933 261.867 29.871 245 29.871 228.485 C 29.871 216.656 31.981 204.694 36.114 193.256 C 38.23 187.207 40.887 181.4 44.047 175.927 C 52.777 160.806 65.763 147.312 81.077 138.109 C 88.731 133.51 97.435 129.706 106.39 127.2 C 106.809 127.082 107.249 126.968 107.707 126.856 C 107.878 126.81 108.048 126.765 108.218 126.72 C 117.062 124.38 134.372 123.405 134.372 123.405 C 134.725 123.336 136.287 134.172 136.471 134.178 C 136.459 134.179 136.264 134.184 135.928 134.195 C 135.94 134.226 135.949 134.243 135.956 134.243 C 135.867 134.246 126.267 134.596 121.908 135.193 C 119.201 135.564 116.611 136.031 114.054 136.606 C 113.05 136.837 112.044 137.086 111.031 137.354 C 102.884 139.509 95.351 142.579 88.003 146.849 C 87.12 147.344 86.25 147.85 85.393 148.364 C 71.951 156.742 61.384 167.899 53.574 181.427 C 48.918 189.491 45.382 198.09 43.155 207.004 C 41.624 214.015 40.871 221.221 40.871 228.485 C 40.871 238.977 42.466 249.306 45.71 259.102 C 47.721 264.684 50.329 270.23 53.574 275.692 C 56.611 281.107 60.021 286.034 63.747 290.485 C 70.355 297.949 78.426 304.592 88.003 310.121 C 96.372 314.953 104.904 318.364 113.441 320.476 C 120.543 322.051 127.846 322.824 135.21 322.824 C 141.686 322.824 148.116 322.226 154.403 321.01 C 164.127 318.88 173.502 315.182 182.268 310.121 C 192.05 304.473 200.799 297.319 208.025 288.831 C 211.227 284.822 214.181 280.445 216.846 275.692 C 223.722 263.936 227.813 251.305 229.066 238.007 C 229.327 234.899 229.441 231.724 229.4 228.485 L 229.478 228.485 C 229.477 228.307 229.475 228.129 229.473 227.951 L 229.484 227.951 C 229.688 209.914 234.648 191.582 243.578 175.928 C 263.939 141.583 299.92 123.296 334.74 123.296 C 369.559 123.296 405.94 141.353 425.902 175.928 C 445.864 210.503 443.312 251.038 425.902 281.193 C 417.172 296.314 404.186 309.808 388.872 319.01 C 381.219 323.609 372.514 327.413 363.559 329.919 C 354.624 332.42 336.222 333.622 336.222 333.622 C 335.868 333.696 334.18 322.881 333.994 322.876 C 334.083 322.873 343.683 322.523 348.041 321.926 C 352.413 321.327 356.479 320.478 360.595 319.326 C 368.815 317.026 376.16 313.816 383.207 309.581 C 397.292 301.117 408.306 289.67 416.376 275.693 C 432.566 247.651 434.814 213.363 416.376 181.428 C 397.938 149.493 367.12 134.296 334.74 134.296 C 302.36 134.296 271.142 149.263 253.104 181.428 C 244.733 195.74 240.489 211.349 240.47 227.881 L 240.473 227.881 C 240.473 228.108 240.473 228.335 240.471 228.562 C 240.473 228.764 240.474 228.966 240.477 229.168 L 240.466 229.168 C 240.262 247.205 235.302 265.538 226.372 281.192 C 220.982 290.284 214.497 298.251 207.229 305.05 C 201.289 310.71 194.746 315.618 187.768 319.647 Z M 136.471 134.178 C 136.471 134.178 136.471 134.178 136.471 134.178 C 136.471 134.178 136.471 134.178 136.471 134.178 Z M 135.957 134.243 C 135.957 134.243 135.956 134.243 135.956 134.243 C 135.957 134.243 135.957 134.243 135.957 134.243 Z M 333.993 322.876 C 333.993 322.876 333.994 322.876 333.994 322.876 C 333.993 322.876 333.993 322.876 333.993 322.876 Z" style="fill: none; stroke: rgb(23, 104, 255);"/>
      <path d="M 187.768 319.647 C 181.425 323.309 174.624 326.314 167.515 328.59 C 156.97 332.057 146.034 333.825 135.21 333.825 C 128.222 333.825 121.188 333.088 114.243 331.633 C 103.424 329.467 92.704 325.537 82.503 319.647 C 66.966 310.677 54.765 298.391 46.038 284.422 C 45.359 283.361 44.696 282.285 44.048 281.192 C 43.298 279.858 42.58 278.516 41.894 277.167 C 33.933 261.867 29.871 245 29.871 228.485 C 29.871 216.656 31.981 204.694 36.114 193.256 C 38.23 187.207 40.887 181.4 44.047 175.927 C 52.777 160.806 65.763 147.312 81.077 138.109 C 88.731 133.51 97.435 129.706 106.39 127.2 C 106.809 127.082 107.249 126.968 107.707 126.856 C 107.878 126.81 108.048 126.765 108.218 126.72 C 117.062 124.38 134.372 123.405 134.372 123.405 C 141.738 123.112 153.532 126.038 164.115 130.87 C 185.889 140.811 207.639 159.41 202.272 159.626 C 202.841 159.324 172.797 142.435 159.814 138.825 C 148.909 135.794 138.136 134.219 135.928 134.195 C 135.94 134.226 135.949 134.243 135.956 134.243 C 135.867 134.246 126.267 134.596 121.908 135.193 C 119.201 135.564 116.611 136.031 114.054 136.606 C 113.05 136.837 112.044 137.086 111.031 137.354 C 102.884 139.509 95.351 142.579 88.003 146.849 C 87.12 147.344 86.25 147.85 85.393 148.364 C 71.951 156.742 61.384 167.899 53.574 181.427 C 48.918 189.491 45.382 198.09 43.155 207.004 C 41.624 214.015 40.871 221.221 40.871 228.485 C 40.871 238.977 42.466 249.306 45.71 259.102 C 47.721 264.684 50.329 270.23 53.574 275.692 C 56.611 281.107 60.021 286.034 63.747 290.485 C 70.355 297.949 78.426 304.592 88.003 310.121 C 96.372 314.953 104.904 318.364 113.441 320.476 C 120.543 322.051 127.846 322.824 135.21 322.824 C 141.686 322.824 148.116 322.226 154.403 321.01 C 164.127 318.88 173.502 315.182 182.268 310.121 C 192.05 304.473 200.799 297.319 208.025 288.831 C 211.227 284.822 214.181 280.445 216.846 275.692 C 223.722 263.936 227.813 251.305 229.066 238.007 C 229.327 234.899 229.441 231.724 229.4 228.485 L 229.478 228.485 C 229.477 228.307 229.475 228.129 229.473 227.951 L 229.484 227.951 C 229.688 209.914 234.648 191.582 243.578 175.928 C 263.939 141.583 299.92 123.296 334.74 123.296 C 369.559 123.296 405.94 141.353 425.902 175.928 C 445.864 210.503 443.312 251.038 425.902 281.193 C 417.172 296.314 404.186 309.808 388.872 319.01 C 381.219 323.609 372.514 327.413 363.559 329.919 C 354.624 332.42 336.222 333.622 336.222 333.622 C 311.128 332.707 286.817 326.777 281.823 323.911 C 255.986 309.081 268.313 315.485 300.321 321.868 C 311.051 324.008 334.067 322.878 333.994 322.876 C 334.083 322.873 343.683 322.523 348.041 321.926 C 352.413 321.327 356.479 320.478 360.595 319.326 C 368.815 317.026 376.16 313.816 383.207 309.581 C 397.292 301.117 408.306 289.67 416.376 275.693 C 432.566 247.651 434.814 213.363 416.376 181.428 C 397.938 149.493 367.12 134.296 334.74 134.296 C 302.36 134.296 271.142 149.263 253.104 181.428 C 244.733 195.74 240.489 211.349 240.47 227.881 L 240.473 227.881 C 240.473 228.108 240.473 228.335 240.471 228.562 C 240.473 228.764 240.474 228.966 240.477 229.168 L 240.466 229.168 C 240.262 247.205 235.302 265.538 226.372 281.192 C 220.982 290.284 214.497 298.251 207.229 305.05 C 201.289 310.71 194.746 315.618 187.768 319.647 Z M 135.957 134.243 L 135.956 134.243 C 135.957 134.243 135.957 134.243 135.957 134.243 Z M 333.993 322.876 L 333.994 322.876 C 333.993 322.876 333.993 322.876 333.993 322.876 Z" style="fill: rgb(23, 104, 255); stroke: rgb(23, 104, 255);"/>
    </g>
  </g>
</svg>